<?xml version="1.0" standalone="no"?>
<!DOCTYPE svg PUBLIC "-//W3C//DTD SVG 20010904//EN"
 "http://www.w3.org/TR/2001/REC-SVG-20010904/DTD/svg10.dtd">
<svg version="1.0" xmlns="http://www.w3.org/2000/svg"
 width="444.000000pt" height="482.000000pt" viewBox="0 0 444.000000 482.000000"
 preserveAspectRatio="xMidYMid meet">

<g transform="translate(0.000000,482.000000) scale(0.100000,-0.100000)"
fill="#000000" stroke="none">
<path d="M2109 4356 c-89 -32 -164 -102 -196 -185 -17 -43 -18 -107 -21 -906
-4 -941 -3 -956 51 -1046 125 -209 439 -193 548 27 l24 49 5 720 5 720 630 5
c451 4 640 9 666 18 54 18 129 76 161 123 89 134 68 305 -53 413 -89 80 -39
76 -963 76 -645 -1 -829 -4 -857 -14z"/>
<path d="M295 3306 c-93 -23 -149 -64 -197 -144 -49 -79 -61 -122 -56 -200 5
-82 28 -140 164 -420 230 -475 507 -945 762 -1296 391 -538 746 -822 1106
-885 225 -40 494 35 728 202 418 299 875 926 1328 1822 179 354 216 437 243
540 19 72 19 87 8 140 -27 125 -122 219 -249 244 -100 19 -226 -20 -288 -91
-16 -18 -49 -78 -74 -133 -221 -495 -609 -1166 -876 -1515 -218 -286 -454
-499 -609 -550 -230 -76 -676 375 -1132 1142 -139 234 -397 732 -492 948 -40
91 -85 140 -160 173 -71 32 -142 39 -206 23z"/>
</g>
</svg>
